<svg width="47" height="40" viewBox="0 0 47 40" fill="none" xmlns="http://www.w3.org/2000/svg">
<g clip-path="url(#clip0_12_451)">
<path d="M29.6001 22.8989L36.1191 38.668L38.433 31.801L45.2471 29.4686L29.6001 22.8989Z" fill="#3A9FD5" stroke="white" stroke-width="2" stroke-linecap="round" stroke-linejoin="round"/>
<path d="M38.8203 32.1914L44.3526 37.7668" stroke="white" stroke-width="2" stroke-linecap="round" stroke-linejoin="round"/>
<mask id="mask0_12_451" style="mask-type:alpha" maskUnits="userSpaceOnUse" x="-6" y="-7" width="49" height="49">
<path d="M42.4402 -6.20703H-5.30518V41.9104H42.4402V-6.20703Z" fill="white"/>
<path d="M29.1871 29.7606C26.3626 32.324 22.7323 33.8025 18.9329 33.9366C15.134 34.0709 11.4101 32.852 8.4136 30.4943C5.41763 28.1366 3.34204 24.7906 2.54994 21.0438C1.75838 17.2969 2.3014 13.3888 4.08421 10.0054C5.86761 6.62216 8.77615 3.97988 12.2992 2.54264C15.8229 1.10529 19.7363 0.964864 23.3524 2.14593C26.9686 3.32699 30.0558 5.75404 32.073 9.00104C34.0902 12.248 34.9078 16.1073 34.3829 19.9014L27.6279 18.9515C27.9315 16.7576 27.4588 14.526 26.2922 12.6485C25.1262 10.771 23.3405 9.36757 21.2496 8.68465C19.1587 8.00173 16.8958 8.08296 14.8583 8.91399C12.8207 9.74513 11.1389 11.273 10.1079 13.2294C9.07748 15.1857 8.7631 17.4456 9.22103 19.6121C9.67891 21.7787 10.879 23.7135 12.6113 25.0768C14.3442 26.4401 16.4975 27.1449 18.694 27.0673C20.891 26.9897 22.9904 26.1347 24.6234 24.6526L29.1871 29.7606Z" fill="black"/>
</mask>
<g mask="url(#mask0_12_451)">
<path d="M29.1876 29.7611C26.363 32.3245 22.7327 33.803 18.9333 33.9371C15.1345 34.0713 11.4106 32.8525 8.41406 30.4948C5.41814 28.1371 3.34254 24.7911 2.5504 21.0442C1.75888 17.2974 2.30191 13.3893 4.08472 10.0059C5.86811 6.62265 8.77666 3.98037 12.2997 2.54312C15.8233 1.10578 19.7368 0.965352 23.3529 2.14641C26.969 3.32747 30.0563 5.75453 32.0735 9.00153C34.0907 12.2485 34.9083 16.1078 34.3834 19.9019L27.6284 18.952C27.9319 16.7581 27.4593 14.5265 26.2927 12.649C25.1266 10.7715 23.341 9.36806 21.2501 8.68514C19.1591 8.00222 16.8963 8.08344 14.8587 8.91448C12.8212 9.74562 11.1394 11.2735 10.1084 13.2299C9.07793 15.1862 8.76361 17.446 9.22148 19.6126C9.67942 21.7792 10.8795 23.714 12.6118 25.0773C14.3447 26.4406 16.498 27.1454 18.6945 27.0678C20.8915 26.9902 22.9909 26.1352 24.6239 24.653L29.1876 29.7611Z" fill="white"/>
<path d="M29.1876 29.7611C26.363 32.3245 22.7327 33.803 18.9333 33.9371C15.1345 34.0713 11.4106 32.8525 8.41406 30.4948C5.41814 28.1371 3.34254 24.7911 2.5504 21.0442C1.75888 17.2974 2.30191 13.3893 4.08472 10.0059C5.86811 6.62265 8.77666 3.98037 12.2997 2.54312C15.8233 1.10578 19.7368 0.965352 23.3529 2.14641C26.969 3.32747 30.0563 5.75453 32.0735 9.00153C34.0907 12.2485 34.9083 16.1078 34.3834 19.9019L27.6284 18.952C27.9319 16.7581 27.4593 14.5265 26.2927 12.649C25.1266 10.7715 23.341 9.36806 21.2501 8.68514C19.1591 8.00222 16.8963 8.08344 14.8587 8.91448C12.8212 9.74562 11.1394 11.2735 10.1084 13.2299C9.07793 15.1862 8.76361 17.446 9.22148 19.6126C9.67942 21.7792 10.8795 23.714 12.6118 25.0773C14.3447 26.4406 16.498 27.1454 18.6945 27.0678C20.8915 26.9902 22.9909 26.1352 24.6239 24.653L29.1876 29.7611Z" stroke="white" stroke-width="2"/>
<path d="M18.4778 21.827C20.8281 21.827 22.7334 19.9069 22.7334 17.5383C22.7334 15.1697 20.8281 13.2495 18.4778 13.2495C16.1275 13.2495 14.2222 15.1697 14.2222 17.5383C14.2222 19.9069 16.1275 21.827 18.4778 21.827Z" fill="#3A9FD5" stroke="white" stroke-width="2"/>
</g>
</g>
<defs>
<clipPath id="clip0_12_451">
<rect width="46.8966" height="40" fill="white"/>
</clipPath>
</defs>
</svg>
