<svg width="30" height="30" viewBox="0 0 30 30" fill="none" xmlns="http://www.w3.org/2000/svg">
<path d="M21.9231 0H8.07692C5.93549 0.00229071 3.88243 0.853986 2.36821 2.36821C0.853986 3.88243 0.00229071 5.93549 0 8.07692V21.9231C0.00229071 24.0645 0.853986 26.1176 2.36821 27.6318C3.88243 29.146 5.93549 29.9977 8.07692 30H21.9231C24.0645 29.9977 26.1176 29.146 27.6318 27.6318C29.146 26.1176 29.9977 24.0645 30 21.9231V8.07692C29.9977 5.93549 29.146 3.88243 27.6318 2.36821C26.1176 0.853986 24.0645 0.00229071 21.9231 0ZM15 21.9231C13.6307 21.9231 12.2922 21.517 11.1537 20.7563C10.0152 19.9956 9.1279 18.9144 8.60391 17.6493C8.07992 16.3843 7.94282 14.9923 8.20995 13.6494C8.47708 12.3064 9.13644 11.0729 10.1046 10.1046C11.0729 9.13644 12.3064 8.47708 13.6494 8.20995C14.9923 7.94282 16.3843 8.07992 17.6493 8.60391C18.9144 9.1279 19.9956 10.0152 20.7563 11.1537C21.517 12.2922 21.9231 13.6307 21.9231 15C21.9212 16.8355 21.1912 18.5953 19.8932 19.8932C18.5953 21.1912 16.8355 21.9212 15 21.9231ZM23.6538 8.07692C23.3115 8.07692 22.9769 7.97542 22.6923 7.78524C22.4077 7.59506 22.1858 7.32475 22.0548 7.00849C21.9238 6.69223 21.8896 6.34423 21.9563 6.0085C22.0231 5.67276 22.188 5.36437 22.43 5.12231C22.6721 4.88026 22.9805 4.71542 23.3162 4.64864C23.6519 4.58186 23.9999 4.61613 24.3162 4.74713C24.6324 4.87813 24.9027 5.09997 25.0929 5.38459C25.2831 5.66921 25.3846 6.00384 25.3846 6.34615C25.3846 6.80518 25.2023 7.24541 24.8777 7.56999C24.5531 7.89457 24.1129 8.07692 23.6538 8.07692ZM19.6154 15C19.6154 15.9128 19.3447 16.8052 18.8376 17.5642C18.3304 18.3232 17.6096 18.9147 16.7662 19.2641C15.9229 19.6134 14.9949 19.7048 14.0996 19.5267C13.2043 19.3486 12.3819 18.909 11.7364 18.2636C11.091 17.6181 10.6514 16.7957 10.4733 15.9004C10.2952 15.0051 10.3866 14.0771 10.7359 13.2338C11.0853 12.3904 11.6768 11.6696 12.4358 11.1624C13.1948 10.6553 14.0872 10.3846 15 10.3846C16.2241 10.3846 17.398 10.8709 18.2636 11.7364C19.1291 12.602 19.6154 13.7759 19.6154 15Z" fill="white"/>
</svg>
