<svg width="30" height="30" viewBox="0 0 30 30" fill="none" xmlns="http://www.w3.org/2000/svg">
<path d="M9 24C7.35 24 6.015 25.35 6.015 27C6.015 28.65 7.35 30 9 30C10.65 30 12 28.65 12 27C12 25.35 10.65 24 9 24ZM0 0V3H3L8.4 14.385L6.375 18.06C6.135 18.48 6 18.975 6 19.5C6 21.15 7.35 22.5 9 22.5H27V19.5H9.63C9.42 19.5 9.255 19.335 9.255 19.125L9.3 18.945L10.65 16.5H21.825C22.95 16.5 23.94 15.885 24.45 14.955L29.82 5.22C29.9438 4.99108 30.006 4.73397 30.0007 4.47379C29.9954 4.21362 29.9227 3.95926 29.7897 3.73558C29.6567 3.5119 29.468 3.32655 29.2419 3.19762C29.0159 3.06869 28.7602 3.0006 28.5 3H6.315L4.905 0H0ZM24 24C22.35 24 21.015 25.35 21.015 27C21.015 28.65 22.35 30 24 30C25.65 30 27 28.65 27 27C27 25.35 25.65 24 24 24Z" fill="white"/>
</svg>
